<svg xmlns="http://www.w3.org/2000/svg" xmlns:xlink="http://www.w3.org/1999/xlink" width="500" zoomAndPan="magnify" viewBox="0 0 375 67.499998" height="90" preserveAspectRatio="xMidYMid meet" version="1.0"><defs><g/></defs><g fill="#000000" fill-opacity="1"><g transform="translate(1.378682, 51.334682)"><g><path d="M 26.324219 -12.808594 L 11.035156 -17.769531 L 26.324219 -22.730469 L 26.324219 -30.777344 L 1.773438 -22.222656 L 1.773438 -13.414062 L 26.324219 -4.757812 Z M 26.324219 -12.808594 "/></g></g></g><g fill="#000000" fill-opacity="1"><g transform="translate(29.929581, 51.334682)"><g><path d="M 11.289062 0 L 11.289062 -16.148438 C 11.289062 -18.628906 11.644531 -20.046875 12.351562 -21.007812 C 13.109375 -22.070312 14.375 -22.476562 16.148438 -22.476562 C 17.566406 -22.476562 18.578125 -22.171875 19.285156 -21.414062 C 20.148438 -20.503906 20.503906 -18.984375 20.503906 -16.148438 L 20.503906 0 L 29.007812 0 L 29.007812 -16.046875 C 29.007812 -19.589844 29.007812 -21.867188 27.894531 -24.347656 C 26.730469 -26.980469 24.296875 -29.308594 18.628906 -29.308594 C 15.589844 -29.308594 13.210938 -28.5 11.289062 -25.613281 L 11.289062 -38.625 L 2.785156 -38.625 L 2.785156 0 Z M 11.289062 0 "/></g></g></g><g fill="#000000" fill-opacity="1"><g transform="translate(61.517816, 51.334682)"><g><path d="M 20.703125 0 L 20.703125 -38.625 L 11.945312 -38.625 C 10.125 -34.171875 6.582031 -31.4375 1.46875 -30.425781 L 1.46875 -22.273438 C 5.71875 -22.679688 9.464844 -24.957031 11.644531 -27.742188 L 11.644531 0 Z M 20.703125 0 "/></g></g></g><g fill="#000000" fill-opacity="1"><g transform="translate(85.006496, 51.334682)"><g><path d="M 26.777344 -13.414062 L 26.777344 -22.222656 L 2.226562 -30.777344 L 2.226562 -22.730469 L 17.515625 -17.769531 L 2.226562 -12.808594 L 2.226562 -4.757812 Z M 26.777344 -13.414062 "/></g></g></g><g fill="#000000" fill-opacity="1"><g transform="translate(113.557395, 51.334682)"><g><path d="M 24.449219 0 L 28.804688 -29.160156 L 33.15625 0 L 47.839844 0 L 57.050781 -38.625 L 47.535156 -38.625 L 40.648438 -6.429688 L 35.03125 -38.625 L 22.578125 -38.625 L 16.957031 -6.480469 L 10.074219 -38.625 L 0.558594 -38.625 L 9.769531 0 Z M 24.449219 0 "/></g></g></g><g fill="#000000" fill-opacity="1"><g transform="translate(171.165419, 51.334682)"><g><path d="M 16.605469 0.609375 C 24.703125 0.609375 29.109375 -4.253906 30.726562 -9.921875 L 22.171875 -9.921875 C 21.464844 -8.148438 19.640625 -6.683594 17.058594 -6.683594 C 14.933594 -6.683594 13.210938 -7.339844 11.996094 -8.859375 C 11.289062 -9.71875 10.730469 -11.136719 10.53125 -12.554688 L 31.183594 -12.554688 L 31.183594 -14.023438 C 31.183594 -25.109375 23.894531 -29.308594 16.351562 -29.308594 C 5.972656 -29.308594 1.621094 -21.414062 1.621094 -14.125 C 1.621094 -5.617188 7.492188 0.609375 16.605469 0.609375 Z M 10.78125 -18.578125 C 10.882812 -19.238281 11.136719 -20.199219 12.097656 -21.160156 C 13.3125 -22.375 14.933594 -22.832031 16.65625 -22.832031 C 18.375 -22.832031 19.996094 -22.375 21.210938 -21.160156 C 22.121094 -20.25 22.425781 -19.238281 22.578125 -18.578125 Z M 10.78125 -18.578125 "/></g></g></g><g fill="#000000" fill-opacity="1"><g transform="translate(203.968588, 51.334682)"><g><path d="M 18.628906 0.609375 C 25.96875 0.609375 31.132812 -5.570312 31.132812 -14.375 C 31.132812 -23.132812 25.96875 -29.308594 18.628906 -29.308594 C 15.589844 -29.308594 13.210938 -28.5 11.289062 -25.613281 L 11.289062 -38.625 L 2.785156 -38.625 L 2.785156 0 L 11.289062 0 L 11.289062 -3.089844 C 13.210938 -0.203125 15.589844 0.609375 18.628906 0.609375 Z M 16.25 -6.632812 C 12.503906 -6.632812 9.972656 -9.71875 9.972656 -14.375 C 9.972656 -18.984375 12.503906 -22.070312 16.25 -22.070312 C 20.046875 -22.070312 22.527344 -18.882812 22.527344 -14.375 C 22.527344 -9.820312 20.046875 -6.632812 16.25 -6.632812 Z M 16.25 -6.632812 "/></g></g></g><g fill="#000000" fill-opacity="1"><g transform="translate(236.82237, 51.334682)"><g><path d="M 26.324219 -12.808594 L 11.035156 -17.769531 L 26.324219 -22.730469 L 26.324219 -30.777344 L 1.773438 -22.222656 L 1.773438 -13.414062 L 26.324219 -4.757812 Z M 26.324219 -12.808594 "/></g></g></g><g fill="#000000" fill-opacity="1"><g transform="translate(265.373268, 51.334682)"><g><path d="M 24.097656 -38.625 L 16.605469 -38.625 L -1.367188 5.617188 L 6.175781 5.617188 Z M 24.097656 -38.625 "/></g></g></g><g fill="#000000" fill-opacity="1"><g transform="translate(289.975641, 51.334682)"><g><path d="M 11.289062 0 L 11.289062 -16.148438 C 11.289062 -18.628906 11.644531 -20.046875 12.351562 -21.007812 C 13.109375 -22.070312 14.375 -22.476562 16.148438 -22.476562 C 17.566406 -22.476562 18.578125 -22.171875 19.285156 -21.414062 C 20.148438 -20.503906 20.503906 -18.984375 20.503906 -16.148438 L 20.503906 0 L 29.007812 0 L 29.007812 -16.046875 C 29.007812 -19.589844 29.007812 -21.867188 27.894531 -24.347656 C 26.730469 -26.980469 24.296875 -29.308594 18.628906 -29.308594 C 15.589844 -29.308594 13.210938 -28.5 11.289062 -25.613281 L 11.289062 -38.625 L 2.785156 -38.625 L 2.785156 0 Z M 11.289062 0 "/></g></g></g><g fill="#000000" fill-opacity="1"><g transform="translate(321.563876, 51.334682)"><g><path d="M 20.703125 0 L 20.703125 -38.625 L 11.945312 -38.625 C 10.125 -34.171875 6.582031 -31.4375 1.46875 -30.425781 L 1.46875 -22.273438 C 5.71875 -22.679688 9.464844 -24.957031 11.644531 -27.742188 L 11.644531 0 Z M 20.703125 0 "/></g></g></g><g fill="#000000" fill-opacity="1"><g transform="translate(345.052556, 51.334682)"><g><path d="M 26.777344 -13.414062 L 26.777344 -22.222656 L 2.226562 -30.777344 L 2.226562 -22.730469 L 17.515625 -17.769531 L 2.226562 -12.808594 L 2.226562 -4.757812 Z M 26.777344 -13.414062 "/></g></g></g></svg>