<svg xmlns="http://www.w3.org/2000/svg" xmlns:xlink="http://www.w3.org/1999/xlink" width="500" zoomAndPan="magnify" viewBox="0 0 375 67.499998" height="90" preserveAspectRatio="xMidYMid meet" version="1.0"><defs><g/></defs><g fill="#000000" fill-opacity="1"><g transform="translate(6.641968, 46.228738)"><g><path d="M 18.785156 -9.140625 L 7.875 -12.679688 L 18.785156 -16.222656 L 18.785156 -21.964844 L 1.265625 -15.859375 L 1.265625 -9.574219 L 18.785156 -3.394531 Z M 18.785156 -9.140625 "/></g></g></g><g fill="#000000" fill-opacity="1"><g transform="translate(27.018108, 46.228738)"><g><path d="M 8.054688 0 L 8.054688 -11.523438 C 8.054688 -13.296875 8.308594 -14.308594 8.816406 -14.992188 C 9.355469 -15.75 10.261719 -16.039062 11.523438 -16.039062 C 12.535156 -16.039062 13.257812 -15.824219 13.765625 -15.28125 C 14.378906 -14.632812 14.632812 -13.546875 14.632812 -11.523438 L 14.632812 0 L 20.703125 0 L 20.703125 -11.453125 C 20.703125 -13.980469 20.703125 -15.605469 19.90625 -17.378906 C 19.074219 -19.257812 17.339844 -20.917969 13.296875 -20.917969 C 11.128906 -20.917969 9.429688 -20.339844 8.054688 -18.28125 L 8.054688 -27.566406 L 1.988281 -27.566406 L 1.988281 0 Z M 8.054688 0 "/></g></g></g><g fill="#000000" fill-opacity="1"><g transform="translate(49.561928, 46.228738)"><g><path d="M 14.777344 0 L 14.777344 -27.566406 L 8.527344 -27.566406 C 7.226562 -24.386719 4.695312 -22.433594 1.046875 -21.714844 L 1.046875 -15.894531 C 4.082031 -16.183594 6.757812 -17.8125 8.308594 -19.796875 L 8.308594 0 Z M 14.777344 0 "/></g></g></g><g fill="#000000" fill-opacity="1"><g transform="translate(66.325276, 46.228738)"><g><path d="M 19.113281 -9.574219 L 19.113281 -15.859375 L 1.589844 -21.964844 L 1.589844 -16.222656 L 12.5 -12.679688 L 1.589844 -9.140625 L 1.589844 -3.394531 Z M 19.113281 -9.574219 "/></g></g></g><g fill="#000000" fill-opacity="1"><g transform="translate(86.701416, 46.228738)"><g><path d="M 17.449219 0 L 20.558594 -20.808594 L 23.664062 0 L 34.140625 0 L 40.714844 -27.566406 L 33.925781 -27.566406 L 29.011719 -4.589844 L 25 -27.566406 L 16.113281 -27.566406 L 12.101562 -4.625 L 7.191406 -27.566406 L 0.398438 -27.566406 L 6.972656 0 Z M 17.449219 0 "/></g></g></g><g fill="#000000" fill-opacity="1"><g transform="translate(127.81498, 46.228738)"><g><path d="M 11.851562 0.433594 C 17.628906 0.433594 20.773438 -3.035156 21.929688 -7.082031 L 15.824219 -7.082031 C 15.316406 -5.816406 14.019531 -4.769531 12.175781 -4.769531 C 10.65625 -4.769531 9.429688 -5.238281 8.5625 -6.324219 C 8.054688 -6.9375 7.660156 -7.949219 7.515625 -8.960938 L 22.253906 -8.960938 L 22.253906 -10.007812 C 22.253906 -17.917969 17.050781 -20.917969 11.667969 -20.917969 C 4.261719 -20.917969 1.15625 -15.28125 1.15625 -10.078125 C 1.15625 -4.011719 5.347656 0.433594 11.851562 0.433594 Z M 7.695312 -13.257812 C 7.765625 -13.730469 7.949219 -14.414062 8.632812 -15.101562 C 9.5 -15.96875 10.65625 -16.292969 11.886719 -16.292969 C 13.113281 -16.292969 14.269531 -15.96875 15.136719 -15.101562 C 15.789062 -14.453125 16.003906 -13.730469 16.113281 -13.257812 Z M 7.695312 -13.257812 "/></g></g></g><g fill="#000000" fill-opacity="1"><g transform="translate(151.225871, 46.228738)"><g><path d="M 13.296875 0.433594 C 18.535156 0.433594 22.21875 -3.972656 22.21875 -10.261719 C 22.21875 -16.511719 18.535156 -20.917969 13.296875 -20.917969 C 11.128906 -20.917969 9.429688 -20.339844 8.054688 -18.28125 L 8.054688 -27.566406 L 1.988281 -27.566406 L 1.988281 0 L 8.054688 0 L 8.054688 -2.203125 C 9.429688 -0.144531 11.128906 0.433594 13.296875 0.433594 Z M 11.597656 -4.734375 C 8.921875 -4.734375 7.117188 -6.9375 7.117188 -10.261719 C 7.117188 -13.546875 8.921875 -15.75 11.597656 -15.75 C 14.308594 -15.75 16.078125 -13.476562 16.078125 -10.261719 C 16.078125 -7.007812 14.308594 -4.734375 11.597656 -4.734375 Z M 11.597656 -4.734375 "/></g></g></g><g fill="#000000" fill-opacity="1"><g transform="translate(174.672883, 46.228738)"><g><path d="M 8.632812 0 L 8.632812 -16.835938 L 19.21875 0 L 25.796875 0 L 25.796875 -27.566406 L 19.328125 -27.566406 L 19.328125 -10.839844 L 8.742188 -27.566406 L 2.167969 -27.566406 L 2.167969 0 Z M 8.632812 0 "/></g></g></g><g fill="#000000" fill-opacity="1"><g transform="translate(202.63588, 46.228738)"><g><path d="M 7.910156 0.433594 C 9.609375 0.433594 11.234375 0.179688 12.429688 -0.648438 C 13.078125 -1.082031 13.546875 -1.699219 13.875 -2.492188 L 13.875 0 L 19.941406 0 L 19.941406 -9.71875 C 19.941406 -13.511719 19.941406 -16.726562 17.414062 -18.894531 C 15.789062 -20.304688 13.441406 -20.917969 11.054688 -20.917969 C 6.9375 -20.917969 2.710938 -18.785156 1.949219 -13.65625 L 7.984375 -13.65625 C 8.273438 -15.390625 9.609375 -16.367188 11.019531 -16.367188 C 11.921875 -16.367188 12.609375 -16.148438 13.078125 -15.644531 C 13.546875 -15.101562 13.835938 -14.308594 13.910156 -13.257812 L 8.597656 -12.320312 C 7.046875 -12.03125 5.203125 -11.632812 3.757812 -10.695312 C 2.277344 -9.71875 1.191406 -8.199219 1.191406 -5.746094 C 1.191406 -1.625 4.226562 0.433594 7.910156 0.433594 Z M 9.683594 -4.15625 C 8.382812 -4.15625 7.261719 -4.660156 7.261719 -5.960938 C 7.261719 -6.539062 7.476562 -6.9375 7.804688 -7.261719 C 8.308594 -7.730469 8.960938 -7.984375 10.296875 -8.238281 L 14.019531 -8.960938 C 13.945312 -6.71875 13.546875 -5.417969 11.886719 -4.660156 C 11.164062 -4.335938 10.367188 -4.15625 9.683594 -4.15625 Z M 9.683594 -4.15625 "/></g></g></g><g fill="#000000" fill-opacity="1"><g transform="translate(224.348736, 46.228738)"><g><path d="M 8.054688 0 L 8.054688 -11.523438 C 8.054688 -13.296875 8.308594 -14.308594 8.816406 -14.992188 C 9.355469 -15.75 10.261719 -16.039062 11.523438 -16.039062 C 12.535156 -16.039062 13.257812 -15.824219 13.765625 -15.28125 C 14.378906 -14.632812 14.632812 -13.546875 14.632812 -11.523438 L 14.632812 0 L 20.703125 0 L 20.703125 -11.453125 C 20.703125 -13.980469 20.703125 -15.605469 19.90625 -17.378906 C 19.074219 -19.257812 17.339844 -20.917969 13.296875 -20.917969 C 11.128906 -20.917969 9.429688 -20.339844 8.054688 -18.28125 L 8.054688 -20.484375 L 1.988281 -20.484375 L 1.988281 0 Z M 8.054688 0 "/></g></g></g><g fill="#000000" fill-opacity="1"><g transform="translate(246.892543, 46.228738)"><g><path d="M 11.921875 0.433594 C 18.425781 0.433594 22.6875 -3.867188 22.6875 -10.367188 C 22.6875 -16.617188 18.351562 -20.917969 11.921875 -20.917969 C 5.492188 -20.917969 1.15625 -16.65625 1.15625 -10.367188 C 1.15625 -3.828125 5.527344 0.433594 11.921875 0.433594 Z M 11.921875 -4.769531 C 9.210938 -4.769531 7.40625 -6.9375 7.40625 -10.367188 C 7.40625 -13.585938 9.210938 -15.75 11.921875 -15.75 C 14.667969 -15.75 16.367188 -13.546875 16.367188 -10.367188 C 16.367188 -7.007812 14.667969 -4.769531 11.921875 -4.769531 Z M 11.921875 -4.769531 "/></g></g></g><g fill="#000000" fill-opacity="1"><g transform="translate(270.73697, 46.228738)"><g><path d="M 18.785156 -9.140625 L 7.875 -12.679688 L 18.785156 -16.222656 L 18.785156 -21.964844 L 1.265625 -15.859375 L 1.265625 -9.574219 L 18.785156 -3.394531 Z M 18.785156 -9.140625 "/></g></g></g><g fill="#000000" fill-opacity="1"><g transform="translate(291.113111, 46.228738)"><g><path d="M 17.195312 -27.566406 L 11.851562 -27.566406 L -0.976562 4.011719 L 4.40625 4.011719 Z M 17.195312 -27.566406 "/></g></g></g><g fill="#000000" fill-opacity="1"><g transform="translate(308.671288, 46.228738)"><g><path d="M 8.054688 0 L 8.054688 -11.523438 C 8.054688 -13.296875 8.308594 -14.308594 8.816406 -14.992188 C 9.355469 -15.75 10.261719 -16.039062 11.523438 -16.039062 C 12.535156 -16.039062 13.257812 -15.824219 13.765625 -15.28125 C 14.378906 -14.632812 14.632812 -13.546875 14.632812 -11.523438 L 14.632812 0 L 20.703125 0 L 20.703125 -11.453125 C 20.703125 -13.980469 20.703125 -15.605469 19.90625 -17.378906 C 19.074219 -19.257812 17.339844 -20.917969 13.296875 -20.917969 C 11.128906 -20.917969 9.429688 -20.339844 8.054688 -18.28125 L 8.054688 -27.566406 L 1.988281 -27.566406 L 1.988281 0 Z M 8.054688 0 "/></g></g></g><g fill="#000000" fill-opacity="1"><g transform="translate(331.215096, 46.228738)"><g><path d="M 14.777344 0 L 14.777344 -27.566406 L 8.527344 -27.566406 C 7.226562 -24.386719 4.695312 -22.433594 1.046875 -21.714844 L 1.046875 -15.894531 C 4.082031 -16.183594 6.757812 -17.8125 8.308594 -19.796875 L 8.308594 0 Z M 14.777344 0 "/></g></g></g><g fill="#000000" fill-opacity="1"><g transform="translate(347.978444, 46.228738)"><g><path d="M 19.113281 -9.574219 L 19.113281 -15.859375 L 1.589844 -21.964844 L 1.589844 -16.222656 L 12.5 -12.679688 L 1.589844 -9.140625 L 1.589844 -3.394531 Z M 19.113281 -9.574219 "/></g></g></g></svg>