<svg xmlns="http://www.w3.org/2000/svg" xmlns:xlink="http://www.w3.org/1999/xlink" width="500" zoomAndPan="magnify" viewBox="0 0 375 225" height="300" preserveAspectRatio="xMidYMid meet" version="1.0"><defs><g/></defs><g fill="#ffffff" fill-opacity="1"><g transform="translate(-0.000000000000063949, 171.84719)"><g><path d="M 83.53125 -15.6875 L 6.796875 -49.53125 L 6.796875 -60.578125 L 83.53125 -98.90625 L 83.53125 -80.359375 L 30.671875 -55.859375 L 83.53125 -34.15625 Z M 83.53125 -15.6875 "/></g></g></g><g fill="#ffffff" fill-opacity="1"><g transform="translate(90.325646, 171.84719)"><g><path d="M 92.109375 0 L 68.53125 0 L 68.53125 -50.453125 C 68.53125 -62.921875 63.894531 -69.15625 54.625 -69.15625 C 48.03125 -69.15625 43.265625 -66.914062 40.328125 -62.4375 C 37.398438 -57.957031 35.9375 -50.691406 35.9375 -40.640625 L 35.9375 0 L 12.359375 0 L 12.359375 -120.234375 L 35.9375 -120.234375 L 35.9375 -95.734375 C 35.9375 -93.828125 35.753906 -89.347656 35.390625 -82.296875 L 34.84375 -75.34375 L 36.078125 -75.34375 C 41.335938 -83.789062 49.6875 -88.015625 61.125 -88.015625 C 71.269531 -88.015625 78.96875 -85.28125 84.21875 -79.8125 C 89.476562 -74.351562 92.109375 -66.523438 92.109375 -56.328125 Z M 92.109375 0 "/></g></g></g><g fill="#ffffff" fill-opacity="1"><g transform="translate(194.327604, 171.84719)"><g><path d="M 65.375 0 L 41.5 0 L 41.5 -65.375 L 41.71875 -76.109375 L 42.109375 -87.859375 C 38.140625 -83.890625 35.382812 -81.285156 33.84375 -80.046875 L 20.859375 -69.625 L 9.34375 -84 L 45.75 -112.96875 L 65.375 -112.96875 Z M 65.375 0 "/></g></g></g><g fill="#ffffff" fill-opacity="1"><g transform="translate(284.653251, 171.84719)"><g><path d="M 6.796875 -34.15625 L 59.65625 -55.859375 L 6.796875 -80.359375 L 6.796875 -98.90625 L 83.53125 -60.578125 L 83.53125 -49.53125 L 6.796875 -15.6875 Z M 6.796875 -34.15625 "/></g></g></g></svg>